<svg xmlns="http://www.w3.org/2000/svg" viewBox="0 0 32 32">
  <!-- Fondo circular verde oscuro bosque -->
  <circle cx="16" cy="16" r="16" fill="#1c2a0e"/>
  
  <!-- Silueta minimalista del ciervo (cornamenta + cabeza) -->
  <!-- Cornamenta izquierda -->
  <path d="M10 14 Q8 10 7 7 Q8 8 9 7 Q9 9 10 11 Q11 8 11 5 Q12 7 11.5 11 Q12.5 9 13 7 Q13 10 12 13" fill="#c8a96e" opacity="0.95"/>
  <!-- Cornamenta derecha (espejo) -->
  <path d="M22 14 Q24 10 25 7 Q24 8 23 7 Q23 9 22 11 Q21 8 21 5 Q20 7 20.5 11 Q19.5 9 19 7 Q19 10 20 13" fill="#c8a96e" opacity="0.95"/>
  <!-- Cabeza del ciervo -->
  <ellipse cx="16" cy="16" rx="4" ry="4.5" fill="#b87d4b"/>
  <!-- Hocico/nariz -->
  <ellipse cx="16" cy="18.5" rx="2.5" ry="2" fill="#a06838"/>
  <!-- Ojo izquierdo -->
  <circle cx="14.2" cy="15.5" r="0.7" fill="#1c2a0e"/>
  <!-- Ojo derecho -->
  <circle cx="17.8" cy="15.5" r="0.7" fill="#1c2a0e"/>
  
  <!-- Banner "3DF" -->
  <rect x="6" y="23.5" width="20" height="7" rx="1.5" fill="#c8a96e"/>
  <text x="16" y="29.5" font-family="Georgia, 'Times New Roman', serif" font-size="5.5" font-weight="bold" fill="#1c2a0e" text-anchor="middle" letter-spacing="0.5">3DF</text>
</svg>
